<svg width="512" height="512" viewBox="0 0 512 512" fill="none" xmlns="http://www.w3.org/2000/svg">
  <path d="M256 0C397.385 0 512 114.615 512 256C512 397.385 397.385 512 256 512C114.615 512 0 397.385 0 256C0 114.615 114.615 0 256 0Z" fill="#8396FA"/>
  <path d="M256 64C362.039 64 448 149.961 448 256C448 362.039 362.039 448 256 448C149.961 448 64 362.039 64 256C64 149.961 149.961 64 256 64Z" fill="#141416"/>
  <path d="M256 128C327.712 128 386 186.288 386 258C386 329.712 327.712 388 256 388C184.288 388 126 329.712 126 258C126 186.288 184.288 128 256 128Z" fill="#8396FA"/>
</svg>